<svg aria-hidden="true" style="position: absolute; width: 0; height: 0; overflow: hidden;" version="1.1" xmlns="http://www.w3.org/2000/svg" xmlns:xlink="http://www.w3.org/1999/xlink">
<defs>
<symbol id="icon-notification" viewBox="0 0 32 32">
<title>notification</title>
<path d="M6.4 12.8c0-0.001 0-0.003 0-0.004 0-4.173 2.662-7.724 6.381-9.047l0.067-0.021c-0.025-0.152-0.040-0.326-0.040-0.504 0-1.767 1.433-3.2 3.2-3.2s3.2 1.433 3.2 3.2c0 0.178-0.015 0.353-0.043 0.523l0.003-0.019c3.777 1.349 6.432 4.895 6.432 9.062 0 0.003 0 0.007 0 0.010v-0.001 9.6l4.8 3.2v1.6h-28.8v-1.6l4.8-3.2v-9.6zM19.2 28.8c0 1.767-1.433 3.2-3.2 3.2s-3.2-1.433-3.2-3.2v0h6.4z"></path>
</symbol>
<symbol id="icon-plus" viewBox="0 0 25 32">
<title>plus</title>
<path d="M25.143 13.143v3.429c0 0.946-0.768 1.714-1.714 1.714h-7.429v7.429c0 0.946-0.768 1.714-1.714 1.714h-3.429c-0.946 0-1.714-0.768-1.714-1.714v-7.429h-7.429c-0.946 0-1.714-0.768-1.714-1.714v-3.429c0-0.946 0.768-1.714 1.714-1.714h7.429v-7.429c0-0.946 0.768-1.714 1.714-1.714h3.429c0.946 0 1.714 0.768 1.714 1.714v7.429h7.429c0.946 0 1.714 0.768 1.714 1.714z"></path>
</symbol>
<symbol id="icon-question" viewBox="0 0 20 32">
<title>question</title>
<path d="M12.571 22.429v4.286c0 0.393-0.321 0.714-0.714 0.714h-4.286c-0.393 0-0.714-0.321-0.714-0.714v-4.286c0-0.393 0.321-0.714 0.714-0.714h4.286c0.393 0 0.714 0.321 0.714 0.714zM18.214 11.714c0 3.393-2.304 4.696-4 5.643-1.054 0.607-1.714 1.839-1.714 2.357v0c0 0.393-0.304 0.857-0.714 0.857h-4.286c-0.393 0-0.643-0.607-0.643-1v-0.804c0-2.161 2.143-4.018 3.714-4.732 1.375-0.625 1.946-1.214 1.946-2.357 0-1-1.304-1.893-2.75-1.893-0.804 0-1.536 0.25-1.929 0.518-0.429 0.304-0.857 0.732-1.911 2.054-0.143 0.179-0.357 0.286-0.554 0.286-0.161 0-0.304-0.054-0.446-0.143l-2.929-2.232c-0.304-0.232-0.375-0.625-0.179-0.946 1.929-3.196 4.643-4.75 8.286-4.75 3.821 0 8.107 3.054 8.107 7.143z"></path>
</symbol>
<symbol id="icon-minus" viewBox="0 0 25 32">
<title>minus</title>
<path d="M25.143 13.143v3.429c0 0.946-0.768 1.714-1.714 1.714h-21.714c-0.946 0-1.714-0.768-1.714-1.714v-3.429c0-0.946 0.768-1.714 1.714-1.714h21.714c0.946 0 1.714 0.768 1.714 1.714z"></path>
</symbol>
<symbol id="icon-search" viewBox="0 0 30 32">
<title>search</title>
<path d="M20.571 14.857c0-4.411-3.589-8-8-8s-8 3.589-8 8 3.589 8 8 8 8-3.589 8-8zM29.714 29.714c0 1.25-1.036 2.286-2.286 2.286-0.607 0-1.196-0.25-1.607-0.679l-6.125-6.107c-2.089 1.446-4.589 2.214-7.125 2.214-6.946 0-12.571-5.625-12.571-12.571s5.625-12.571 12.571-12.571 12.571 5.625 12.571 12.571c0 2.536-0.768 5.036-2.214 7.125l6.125 6.125c0.411 0.411 0.661 1 0.661 1.607z"></path>
</symbol>
<symbol id="icon-client" viewBox="0 0 23 32">
<title>client</title>
<path d="M22.857 24.982c0 2.607-1.714 4.732-3.804 4.732h-15.25c-2.089 0-3.804-2.125-3.804-4.732 0-4.696 1.161-10.125 5.839-10.125 1.446 1.411 3.411 2.286 5.589 2.286s4.143-0.875 5.589-2.286c4.679 0 5.839 5.429 5.839 10.125zM18.286 9.143c0 3.786-3.071 6.857-6.857 6.857s-6.857-3.071-6.857-6.857 3.071-6.857 6.857-6.857 6.857 3.071 6.857 6.857z"></path>
</symbol>
<symbol id="icon-check" viewBox="0 0 32 32">
<title>check</title>
<path d="M29.839 10.107c0 0.446-0.179 0.893-0.5 1.214l-15.357 15.357c-0.321 0.321-0.768 0.5-1.214 0.5s-0.893-0.179-1.214-0.5l-8.893-8.893c-0.321-0.321-0.5-0.768-0.5-1.214s0.179-0.893 0.5-1.214l2.429-2.429c0.321-0.321 0.768-0.5 1.214-0.5s0.893 0.179 1.214 0.5l5.25 5.268 11.714-11.732c0.321-0.321 0.768-0.5 1.214-0.5s0.893 0.179 1.214 0.5l2.429 2.429c0.321 0.321 0.5 0.768 0.5 1.214z"></path>
</symbol>
<symbol id="icon-close" viewBox="0 0 25 32">
<title>close</title>
<path d="M23.179 23.607c0 0.446-0.179 0.893-0.5 1.214l-2.429 2.429c-0.321 0.321-0.768 0.5-1.214 0.5s-0.893-0.179-1.214-0.5l-5.25-5.25-5.25 5.25c-0.321 0.321-0.768 0.5-1.214 0.5s-0.893-0.179-1.214-0.5l-2.429-2.429c-0.321-0.321-0.5-0.768-0.5-1.214s0.179-0.893 0.5-1.214l5.25-5.25-5.25-5.25c-0.321-0.321-0.5-0.768-0.5-1.214s0.179-0.893 0.5-1.214l2.429-2.429c0.321-0.321 0.768-0.5 1.214-0.5s0.893 0.179 1.214 0.5l5.25 5.25 5.25-5.25c0.321-0.321 0.768-0.5 1.214-0.5s0.893 0.179 1.214 0.5l2.429 2.429c0.321 0.321 0.5 0.768 0.5 1.214s-0.179 0.893-0.5 1.214l-5.25 5.25 5.25 5.25c0.321 0.321 0.5 0.768 0.5 1.214z"></path>
</symbol>
<symbol id="icon-power-off" viewBox="0 0 27 32">
<title>power-off</title>
<path d="M27.429 16c0 7.554-6.161 13.714-13.714 13.714s-13.714-6.161-13.714-13.714c0-4.339 2-8.339 5.482-10.946 1.018-0.768 2.446-0.571 3.196 0.446 0.768 1 0.554 2.446-0.446 3.196-2.321 1.75-3.661 4.411-3.661 7.304 0 5.036 4.107 9.143 9.143 9.143s9.143-4.107 9.143-9.143c0-2.893-1.339-5.554-3.661-7.304-1-0.75-1.214-2.196-0.446-3.196 0.75-1.018 2.196-1.214 3.196-0.446 3.482 2.607 5.482 6.607 5.482 10.946zM16 2.286v11.429c0 1.25-1.036 2.286-2.286 2.286s-2.286-1.036-2.286-2.286v-11.429c0-1.25 1.036-2.286 2.286-2.286s2.286 1.036 2.286 2.286z"></path>
</symbol>
<symbol id="icon-settings1" viewBox="0 0 27 32">
<title>settings1</title>
<path d="M18.286 16c0-2.518-2.054-4.571-4.571-4.571s-4.571 2.054-4.571 4.571 2.054 4.571 4.571 4.571 4.571-2.054 4.571-4.571zM27.429 14.054v3.964c0 0.268-0.214 0.589-0.5 0.643l-3.304 0.5c-0.196 0.571-0.411 1.107-0.696 1.625 0.607 0.875 1.25 1.661 1.911 2.464 0.107 0.125 0.179 0.286 0.179 0.446s-0.054 0.286-0.161 0.411c-0.429 0.571-2.839 3.196-3.446 3.196-0.161 0-0.321-0.071-0.464-0.161l-2.464-1.929c-0.518 0.268-1.071 0.5-1.625 0.679-0.125 1.089-0.232 2.25-0.518 3.321-0.071 0.286-0.321 0.5-0.643 0.5h-3.964c-0.321 0-0.607-0.232-0.643-0.536l-0.5-3.286c-0.554-0.179-1.089-0.393-1.607-0.661l-2.518 1.911c-0.125 0.107-0.286 0.161-0.446 0.161s-0.321-0.071-0.446-0.196c-0.946-0.857-2.196-1.964-2.946-3-0.089-0.125-0.125-0.268-0.125-0.411 0-0.161 0.054-0.286 0.143-0.411 0.607-0.821 1.268-1.607 1.875-2.446-0.304-0.571-0.554-1.161-0.732-1.768l-3.268-0.482c-0.304-0.054-0.518-0.339-0.518-0.643v-3.964c0-0.268 0.214-0.589 0.482-0.643l3.321-0.5c0.179-0.571 0.411-1.107 0.696-1.643-0.607-0.857-1.25-1.661-1.911-2.464-0.107-0.125-0.179-0.268-0.179-0.429s0.071-0.286 0.161-0.411c0.429-0.589 2.839-3.196 3.446-3.196 0.161 0 0.321 0.071 0.464 0.179l2.464 1.911c0.518-0.268 1.071-0.5 1.625-0.679 0.125-1.089 0.232-2.25 0.518-3.321 0.071-0.286 0.321-0.5 0.643-0.5h3.964c0.321 0 0.607 0.232 0.643 0.536l0.5 3.286c0.554 0.179 1.089 0.393 1.607 0.661l2.536-1.911c0.107-0.107 0.268-0.161 0.429-0.161s0.321 0.071 0.446 0.179c0.946 0.875 2.196 1.982 2.946 3.036 0.089 0.107 0.125 0.25 0.125 0.393 0 0.161-0.054 0.286-0.143 0.411-0.607 0.821-1.268 1.607-1.875 2.446 0.304 0.571 0.554 1.161 0.732 1.75l3.268 0.5c0.304 0.054 0.518 0.339 0.518 0.643z"></path>
</symbol>
<symbol id="icon-play-circle-o" viewBox="0 0 27 32">
<title>play-circle-o</title>
<path d="M21.143 16c0 0.411-0.214 0.786-0.571 0.982l-9.714 5.714c-0.179 0.107-0.375 0.161-0.571 0.161s-0.393-0.054-0.571-0.143c-0.357-0.214-0.571-0.589-0.571-1v-11.429c0-0.411 0.214-0.786 0.571-1 0.357-0.196 0.804-0.196 1.143 0.018l9.714 5.714c0.357 0.196 0.571 0.571 0.571 0.982zM23.429 16c0-5.357-4.357-9.714-9.714-9.714s-9.714 4.357-9.714 9.714 4.357 9.714 9.714 9.714 9.714-4.357 9.714-9.714zM27.429 16c0 7.571-6.143 13.714-13.714 13.714s-13.714-6.143-13.714-13.714 6.143-13.714 13.714-13.714 13.714 6.143 13.714 13.714z"></path>
</symbol>
<symbol id="icon-repeat" viewBox="0 0 27 32">
<title>repeat</title>
<path d="M27.429 4.571v8c0 0.625-0.518 1.143-1.143 1.143h-8c-0.464 0-0.875-0.286-1.054-0.714-0.179-0.411-0.089-0.911 0.25-1.232l2.464-2.464c-1.679-1.554-3.893-2.446-6.232-2.446-5.036 0-9.143 4.107-9.143 9.143s4.107 9.143 9.143 9.143c2.839 0 5.464-1.286 7.214-3.554 0.089-0.125 0.25-0.196 0.411-0.214 0.161 0 0.321 0.054 0.446 0.161l2.446 2.464c0.214 0.196 0.214 0.536 0.036 0.768-2.607 3.143-6.464 4.946-10.554 4.946-7.554 0-13.714-6.161-13.714-13.714s6.161-13.714 13.714-13.714c3.518 0 6.929 1.411 9.446 3.786l2.321-2.304c0.321-0.339 0.821-0.429 1.25-0.25 0.411 0.179 0.696 0.589 0.696 1.054z"></path>
</symbol>
<symbol id="icon-refresh" viewBox="0 0 27 32">
<title>refresh</title>
<path d="M26.982 18.857c0 0.036 0 0.089-0.018 0.125-1.518 6.321-6.732 10.732-13.321 10.732-3.482 0-6.857-1.375-9.393-3.786l-2.304 2.304c-0.214 0.214-0.5 0.339-0.804 0.339-0.625 0-1.143-0.518-1.143-1.143v-8c0-0.625 0.518-1.143 1.143-1.143h8c0.625 0 1.143 0.518 1.143 1.143 0 0.304-0.125 0.589-0.339 0.804l-2.446 2.446c1.679 1.571 3.911 2.464 6.214 2.464 3.179 0 6.125-1.643 7.786-4.357 0.429-0.696 0.643-1.375 0.946-2.089 0.089-0.25 0.268-0.411 0.536-0.411h3.429c0.321 0 0.571 0.268 0.571 0.571zM27.429 4.571v8c0 0.625-0.518 1.143-1.143 1.143h-8c-0.625 0-1.143-0.518-1.143-1.143 0-0.304 0.125-0.589 0.339-0.804l2.464-2.464c-1.696-1.571-3.929-2.446-6.232-2.446-3.179 0-6.125 1.643-7.786 4.357-0.429 0.696-0.643 1.375-0.946 2.089-0.089 0.25-0.268 0.411-0.536 0.411h-3.554c-0.321 0-0.571-0.268-0.571-0.571v-0.125c1.536-6.339 6.804-10.732 13.393-10.732 3.5 0 6.911 1.393 9.446 3.786l2.321-2.304c0.214-0.214 0.5-0.339 0.804-0.339 0.625 0 1.143 0.518 1.143 1.143z"></path>
</symbol>
<symbol id="icon-lock" viewBox="0 0 21 32">
<title>lock</title>
<path d="M5.714 13.714h9.143v-3.429c0-2.518-2.054-4.571-4.571-4.571s-4.571 2.054-4.571 4.571v3.429zM20.571 15.429v10.286c0 0.946-0.768 1.714-1.714 1.714h-17.143c-0.946 0-1.714-0.768-1.714-1.714v-10.286c0-0.946 0.768-1.714 1.714-1.714h0.571v-3.429c0-4.393 3.607-8 8-8s8 3.607 8 8v3.429h0.571c0.946 0 1.714 0.768 1.714 1.714z"></path>
</symbol>
<symbol id="icon-pencil" viewBox="0 0 27 32">
<title>pencil</title>
<path d="M6.482 27.429l1.625-1.625-4.196-4.196-1.625 1.625v1.911h2.286v2.286h1.911zM15.821 10.857c0-0.232-0.161-0.393-0.393-0.393-0.107 0-0.214 0.036-0.304 0.125l-9.679 9.679c-0.089 0.089-0.125 0.196-0.125 0.304 0 0.232 0.161 0.393 0.393 0.393 0.107 0 0.214-0.036 0.304-0.125l9.679-9.679c0.089-0.089 0.125-0.196 0.125-0.304zM14.857 7.429l7.429 7.429-14.857 14.857h-7.429v-7.429zM27.054 9.143c0 0.607-0.25 1.196-0.661 1.607l-2.964 2.964-7.429-7.429 2.964-2.946c0.411-0.429 1-0.679 1.607-0.679s1.196 0.25 1.625 0.679l4.196 4.179c0.411 0.429 0.661 1.018 0.661 1.625z"></path>
</symbol>
<symbol id="icon-chev-l" viewBox="0 0 24 32">
<title>chev-l</title>
<path d="M20.911 5.375l-9.482 9.482 9.482 9.482c0.446 0.446 0.446 1.161 0 1.607l-2.964 2.964c-0.446 0.446-1.161 0.446-1.607 0l-13.25-13.25c-0.446-0.446-0.446-1.161 0-1.607l13.25-13.25c0.446-0.446 1.161-0.446 1.607 0l2.964 2.964c0.446 0.446 0.446 1.161 0 1.607z"></path>
</symbol>
<symbol id="icon-chev-r" viewBox="0 0 22 32">
<title>chev-r</title>
<path d="M19.768 15.661l-13.25 13.25c-0.446 0.446-1.161 0.446-1.607 0l-2.964-2.964c-0.446-0.446-0.446-1.161 0-1.607l9.482-9.482-9.482-9.482c-0.446-0.446-0.446-1.161 0-1.607l2.964-2.964c0.446-0.446 1.161-0.446 1.607 0l13.25 13.25c0.446 0.446 0.446 1.161 0 1.607z"></path>
</symbol>
<symbol id="icon-plus-circle" viewBox="0 0 27 32">
<title>plus-circle</title>
<path d="M21.714 17.143v-2.286c0-0.625-0.518-1.143-1.143-1.143h-4.571v-4.571c0-0.625-0.518-1.143-1.143-1.143h-2.286c-0.625 0-1.143 0.518-1.143 1.143v4.571h-4.571c-0.625 0-1.143 0.518-1.143 1.143v2.286c0 0.625 0.518 1.143 1.143 1.143h4.571v4.571c0 0.625 0.518 1.143 1.143 1.143h2.286c0.625 0 1.143-0.518 1.143-1.143v-4.571h4.571c0.625 0 1.143-0.518 1.143-1.143zM27.429 16c0 7.571-6.143 13.714-13.714 13.714s-13.714-6.143-13.714-13.714 6.143-13.714 13.714-13.714 13.714 6.143 13.714 13.714z"></path>
</symbol>
<symbol id="icon-minus-circle" viewBox="0 0 27 32">
<title>minus-circle</title>
<path d="M21.714 17.143v-2.286c0-0.625-0.518-1.143-1.143-1.143h-13.714c-0.625 0-1.143 0.518-1.143 1.143v2.286c0 0.625 0.518 1.143 1.143 1.143h13.714c0.625 0 1.143-0.518 1.143-1.143zM27.429 16c0 7.571-6.143 13.714-13.714 13.714s-13.714-6.143-13.714-13.714 6.143-13.714 13.714-13.714 13.714 6.143 13.714 13.714z"></path>
</symbol>
<symbol id="icon-exclamation-circle" viewBox="0 0 27 32">
<title>exclamation-circle</title>
<path d="M13.714 2.286c7.571 0 13.714 6.143 13.714 13.714s-6.143 13.714-13.714 13.714-13.714-6.143-13.714-13.714 6.143-13.714 13.714-13.714zM16 24.554v-3.393c0-0.321-0.25-0.589-0.554-0.589h-3.429c-0.321 0-0.589 0.268-0.589 0.589v3.393c0 0.321 0.268 0.589 0.589 0.589h3.429c0.304 0 0.554-0.268 0.554-0.589zM15.964 18.411l0.321-11.089c0-0.125-0.054-0.25-0.179-0.321-0.107-0.089-0.268-0.143-0.429-0.143h-3.929c-0.161 0-0.321 0.054-0.429 0.143-0.125 0.071-0.179 0.196-0.179 0.321l0.304 11.089c0 0.25 0.268 0.446 0.607 0.446h3.304c0.321 0 0.589-0.196 0.607-0.446z"></path>
</symbol>
<symbol id="icon-exclamation-triangle" viewBox="0 0 32 32">
<title>exclamation-triangle</title>
<path d="M18.286 24.554v-3.393c0-0.321-0.25-0.589-0.571-0.589h-3.429c-0.321 0-0.571 0.268-0.571 0.589v3.393c0 0.321 0.25 0.589 0.571 0.589h3.429c0.321 0 0.571-0.268 0.571-0.589zM18.25 17.875l0.321-8.196c0-0.107-0.054-0.25-0.179-0.339-0.107-0.089-0.268-0.196-0.429-0.196h-3.929c-0.161 0-0.321 0.107-0.429 0.196-0.125 0.089-0.179 0.268-0.179 0.375l0.304 8.161c0 0.232 0.268 0.411 0.607 0.411h3.304c0.321 0 0.589-0.179 0.607-0.411zM18 1.196l13.714 25.143c0.393 0.696 0.375 1.554-0.036 2.25s-1.161 1.125-1.964 1.125h-27.429c-0.804 0-1.554-0.429-1.964-1.125s-0.429-1.554-0.036-2.25l13.714-25.143c0.393-0.732 1.161-1.196 2-1.196s1.607 0.464 2 1.196z"></path>
</symbol>
<symbol id="icon-comment" viewBox="0 0 32 32">
<title>comment</title>
<path d="M32 16c0 6.321-7.161 11.429-16 11.429-0.875 0-1.75-0.054-2.589-0.143-2.339 2.071-5.125 3.536-8.214 4.321-0.643 0.179-1.339 0.304-2.036 0.393-0.393 0.036-0.768-0.25-0.857-0.679v-0.018c-0.089-0.446 0.214-0.714 0.482-1.036 1.125-1.268 2.411-2.339 3.25-5.321-3.679-2.089-6.036-5.321-6.036-8.946 0-6.304 7.161-11.429 16-11.429s16 5.107 16 11.429z"></path>
</symbol>
<symbol id="icon-shopping-cart" viewBox="0 0 30 32">
<title>shopping-cart</title>
<path d="M11.429 27.429c0 1.25-1.036 2.286-2.286 2.286s-2.286-1.036-2.286-2.286 1.036-2.286 2.286-2.286 2.286 1.036 2.286 2.286zM27.429 27.429c0 1.25-1.036 2.286-2.286 2.286s-2.286-1.036-2.286-2.286 1.036-2.286 2.286-2.286 2.286 1.036 2.286 2.286zM29.714 8v9.143c0 0.571-0.446 1.071-1.018 1.143l-18.643 2.179c0.089 0.411 0.232 0.821 0.232 1.25 0 0.411-0.25 0.786-0.429 1.143h16.429c0.625 0 1.143 0.518 1.143 1.143s-0.518 1.143-1.143 1.143h-18.286c-0.625 0-1.143-0.518-1.143-1.143 0-0.554 0.804-1.893 1.089-2.446l-3.161-14.696h-3.643c-0.625 0-1.143-0.518-1.143-1.143s0.518-1.143 1.143-1.143h4.571c1.196 0 1.232 1.429 1.411 2.286h21.446c0.625 0 1.143 0.518 1.143 1.143z"></path>
</symbol>
<symbol id="icon-comments" viewBox="0 0 32 32">
<title>comments</title>
<path d="M25.143 13.714c0 5.054-5.625 9.143-12.571 9.143-1.089 0-2.143-0.107-3.143-0.286-1.482 1.054-3.161 1.821-4.964 2.286-0.482 0.125-1 0.214-1.536 0.286h-0.054c-0.268 0-0.518-0.214-0.571-0.518v0c-0.071-0.339 0.161-0.554 0.357-0.786 0.696-0.786 1.482-1.482 2.089-2.964-2.893-1.679-4.75-4.268-4.75-7.161 0-5.054 5.625-9.143 12.571-9.143s12.571 4.089 12.571 9.143zM32 18.286c0 2.911-1.857 5.482-4.75 7.161 0.607 1.482 1.393 2.179 2.089 2.964 0.196 0.232 0.429 0.446 0.357 0.786v0c-0.071 0.321-0.339 0.554-0.625 0.518-0.536-0.071-1.054-0.161-1.536-0.286-1.804-0.464-3.482-1.232-4.964-2.286-1 0.179-2.054 0.286-3.143 0.286-3.232 0-6.196-0.893-8.429-2.357 0.518 0.036 1.054 0.071 1.571 0.071 3.839 0 7.464-1.107 10.232-3.107 2.982-2.179 4.625-5.125 4.625-8.321 0-0.929-0.143-1.839-0.411-2.714 3.018 1.661 4.982 4.304 4.982 7.286z"></path>
</symbol>
<symbol id="icon-credit-card" viewBox="0 0 34 32">
<title>credit-card</title>
<path d="M31.429 2.286c1.571 0 2.857 1.286 2.857 2.857v21.714c0 1.571-1.286 2.857-2.857 2.857h-28.571c-1.571 0-2.857-1.286-2.857-2.857v-21.714c0-1.571 1.286-2.857 2.857-2.857h28.571zM2.857 4.571c-0.304 0-0.571 0.268-0.571 0.571v4h29.714v-4c0-0.304-0.268-0.571-0.571-0.571h-28.571zM31.429 27.429c0.304 0 0.571-0.268 0.571-0.571v-10.857h-29.714v10.857c0 0.304 0.268 0.571 0.571 0.571h28.571zM4.571 25.143v-2.286h4.571v2.286h-4.571zM11.429 25.143v-2.286h6.857v2.286h-6.857z"></path>
</symbol>
<symbol id="icon-file-text-o" viewBox="0 0 27 32">
<title>file-text-o</title>
<path d="M26.214 6.786c0.661 0.661 1.214 1.982 1.214 2.929v20.571c0 0.946-0.768 1.714-1.714 1.714h-24c-0.946 0-1.714-0.768-1.714-1.714v-28.571c0-0.946 0.768-1.714 1.714-1.714h16c0.946 0 2.268 0.554 2.929 1.214zM18.286 2.429v6.714h6.714c-0.107-0.304-0.268-0.607-0.393-0.732l-5.589-5.589c-0.125-0.125-0.429-0.286-0.732-0.393zM25.143 29.714v-18.286h-7.429c-0.946 0-1.714-0.768-1.714-1.714v-7.429h-13.714v27.429h22.857zM6.857 14.286c0-0.321 0.25-0.571 0.571-0.571h12.571c0.321 0 0.571 0.25 0.571 0.571v1.143c0 0.321-0.25 0.571-0.571 0.571h-12.571c-0.321 0-0.571-0.25-0.571-0.571v-1.143zM20 18.286c0.321 0 0.571 0.25 0.571 0.571v1.143c0 0.321-0.25 0.571-0.571 0.571h-12.571c-0.321 0-0.571-0.25-0.571-0.571v-1.143c0-0.321 0.25-0.571 0.571-0.571h12.571zM20 22.857c0.321 0 0.571 0.25 0.571 0.571v1.143c0 0.321-0.25 0.571-0.571 0.571h-12.571c-0.321 0-0.571-0.25-0.571-0.571v-1.143c0-0.321 0.25-0.571 0.571-0.571h12.571z"></path>
</symbol>
<symbol id="icon-exclamation" viewBox="0 0 11 32">
<title>exclamation</title>
<path d="M9.143 22.286v4c0 0.625-0.518 1.143-1.143 1.143h-4.571c-0.625 0-1.143-0.518-1.143-1.143v-4c0-0.625 0.518-1.143 1.143-1.143h4.571c0.625 0 1.143 0.518 1.143 1.143zM9.679 3.429l-0.5 13.714c-0.018 0.625-0.554 1.143-1.179 1.143h-4.571c-0.625 0-1.161-0.518-1.179-1.143l-0.5-13.714c-0.018-0.625 0.482-1.143 1.107-1.143h5.714c0.625 0 1.125 0.518 1.107 1.143z"></path>
</symbol>
<symbol id="icon-dollar" viewBox="0 0 18 32">
<title>dollar</title>
<path d="M17.464 21.161c0 3.643-2.607 6.518-6.393 7.143v3.125c0 0.321-0.25 0.571-0.571 0.571h-2.411c-0.304 0-0.571-0.25-0.571-0.571v-3.125c-4.179-0.589-6.464-3.089-6.554-3.196-0.179-0.214-0.196-0.518-0.036-0.732l1.839-2.411c0.089-0.125 0.25-0.196 0.411-0.214s0.321 0.036 0.429 0.161c0.036 0.018 2.536 2.411 5.696 2.411 1.75 0 3.643-0.929 3.643-2.946 0-1.714-2.107-2.554-4.518-3.518-3.214-1.268-7.214-2.875-7.214-7.357 0-3.286 2.571-6 6.304-6.714v-3.214c0-0.321 0.268-0.571 0.571-0.571h2.411c0.321 0 0.571 0.25 0.571 0.571v3.143c3.625 0.411 5.554 2.375 5.625 2.446 0.179 0.196 0.214 0.464 0.089 0.679l-1.446 2.607c-0.089 0.161-0.232 0.268-0.411 0.286-0.179 0.036-0.339-0.018-0.482-0.125-0.018-0.018-2.179-1.929-4.857-1.929-2.268 0-3.839 1.125-3.839 2.75 0 1.893 2.179 2.732 4.714 3.714 3.286 1.268 7 2.714 7 7.018z"></path>
</symbol>
<symbol id="icon-paper-plane" viewBox="0 0 32 32">
<title>paper-plane</title>
<path d="M31.5 0.196c0.375 0.268 0.554 0.696 0.482 1.143l-4.571 27.429c-0.054 0.339-0.268 0.625-0.571 0.804-0.161 0.089-0.357 0.143-0.554 0.143-0.143 0-0.286-0.036-0.429-0.089l-8.089-3.304-4.321 5.268c-0.214 0.268-0.536 0.411-0.875 0.411-0.125 0-0.268-0.018-0.393-0.071-0.446-0.161-0.75-0.589-0.75-1.071v-6.232l15.429-18.911-19.089 16.518-7.054-2.893c-0.411-0.161-0.679-0.536-0.714-0.982-0.018-0.429 0.196-0.839 0.571-1.054l29.714-17.143c0.179-0.107 0.375-0.161 0.571-0.161 0.232 0 0.464 0.071 0.643 0.196z"></path>
</symbol>
<symbol id="icon-sliders" viewBox="0 0 27 32">
<title>sliders</title>
<path d="M6.286 25.143v2.286h-6.286v-2.286h6.286zM12.571 22.857c0.625 0 1.143 0.518 1.143 1.143v4.571c0 0.625-0.518 1.143-1.143 1.143h-4.571c-0.625 0-1.143-0.518-1.143-1.143v-4.571c0-0.625 0.518-1.143 1.143-1.143h4.571zM15.429 16v2.286h-15.429v-2.286h15.429zM4 6.857v2.286h-4v-2.286h4zM27.429 25.143v2.286h-13.143v-2.286h13.143zM10.286 4.571c0.625 0 1.143 0.518 1.143 1.143v4.571c0 0.625-0.518 1.143-1.143 1.143h-4.571c-0.625 0-1.143-0.518-1.143-1.143v-4.571c0-0.625 0.518-1.143 1.143-1.143h4.571zM21.714 13.714c0.625 0 1.143 0.518 1.143 1.143v4.571c0 0.625-0.518 1.143-1.143 1.143h-4.571c-0.625 0-1.143-0.518-1.143-1.143v-4.571c0-0.625 0.518-1.143 1.143-1.143h4.571zM27.429 16v2.286h-4v-2.286h4zM27.429 6.857v2.286h-15.429v-2.286h15.429z"></path>
</symbol>
<symbol id="icon-street-view" viewBox="0 0 25 32">
<title>street-view</title>
<path d="M25.143 27.429c0 3.143-6.518 4.571-12.571 4.571s-12.571-1.429-12.571-4.571c0-2.429 3.625-3.571 6.661-4.089 0.625-0.107 1.214 0.304 1.321 0.929s-0.304 1.214-0.929 1.321c-3.679 0.643-4.714 1.643-4.768 1.857 0.179 0.607 3.607 2.268 10.286 2.268s10.107-1.661 10.286-2.304c-0.054-0.179-1.089-1.179-4.768-1.821-0.625-0.107-1.036-0.696-0.929-1.321s0.696-1.036 1.321-0.929c3.036 0.518 6.661 1.661 6.661 4.089zM18.286 11.429v6.857c0 0.625-0.518 1.143-1.143 1.143h-1.143v6.857c0 0.625-0.518 1.143-1.143 1.143h-4.571c-0.625 0-1.143-0.518-1.143-1.143v-6.857h-1.143c-0.625 0-1.143-0.518-1.143-1.143v-6.857c0-1.268 1.018-2.286 2.286-2.286h6.857c1.268 0 2.286 1.018 2.286 2.286zM16.571 4.571c0 2.214-1.786 4-4 4s-4-1.786-4-4 1.786-4 4-4 4 1.786 4 4z"></path>
</symbol>
<symbol id="icon-room" viewBox="0 0 32 32">
<title>room</title>
<path d="M16 15.313c1.813 0 3.313-1.5 3.313-3.313s-1.5-3.313-3.313-3.313-3.313 1.5-3.313 3.313 1.5 3.313 3.313 3.313zM16 2.688c5.188 0 9.313 4.125 9.313 9.313 0 7-9.313 17.313-9.313 17.313s-9.313-10.313-9.313-17.313c0-5.188 4.125-9.313 9.313-9.313z"></path>
</symbol>
<symbol id="icon-question" viewBox="0 0 20 32">
<title>question</title>
<path d="M12.571 22.429v4.286c0 0.393-0.321 0.714-0.714 0.714h-4.286c-0.393 0-0.714-0.321-0.714-0.714v-4.286c0-0.393 0.321-0.714 0.714-0.714h4.286c0.393 0 0.714 0.321 0.714 0.714zM18.214 11.714c0 3.393-2.304 4.696-4 5.643-1.054 0.607-1.714 1.839-1.714 2.357v0c0 0.393-0.304 0.857-0.714 0.857h-4.286c-0.393 0-0.643-0.607-0.643-1v-0.804c0-2.161 2.143-4.018 3.714-4.732 1.375-0.625 1.946-1.214 1.946-2.357 0-1-1.304-1.893-2.75-1.893-0.804 0-1.536 0.25-1.929 0.518-0.429 0.304-0.857 0.732-1.911 2.054-0.143 0.179-0.357 0.286-0.554 0.286-0.161 0-0.304-0.054-0.446-0.143l-2.929-2.232c-0.304-0.232-0.375-0.625-0.179-0.946 1.929-3.196 4.643-4.75 8.286-4.75 3.821 0 8.107 3.054 8.107 7.143z"></path>
</symbol>
<symbol id="icon-minus" viewBox="0 0 25 32">
<title>minus</title>
<path d="M25.143 13.143v3.429c0 0.946-0.768 1.714-1.714 1.714h-21.714c-0.946 0-1.714-0.768-1.714-1.714v-3.429c0-0.946 0.768-1.714 1.714-1.714h21.714c0.946 0 1.714 0.768 1.714 1.714z"></path>
</symbol>
<symbol id="icon-search" viewBox="0 0 30 32">
<title>search</title>
<path d="M20.571 14.857c0-4.411-3.589-8-8-8s-8 3.589-8 8 3.589 8 8 8 8-3.589 8-8zM29.714 29.714c0 1.25-1.036 2.286-2.286 2.286-0.607 0-1.196-0.25-1.607-0.679l-6.125-6.107c-2.089 1.446-4.589 2.214-7.125 2.214-6.946 0-12.571-5.625-12.571-12.571s5.625-12.571 12.571-12.571 12.571 5.625 12.571 12.571c0 2.536-0.768 5.036-2.214 7.125l6.125 6.125c0.411 0.411 0.661 1 0.661 1.607z"></path>
</symbol>
<symbol id="icon-client" viewBox="0 0 23 32">
<title>client</title>
<path d="M22.857 24.982c0 2.607-1.714 4.732-3.804 4.732h-15.25c-2.089 0-3.804-2.125-3.804-4.732 0-4.696 1.161-10.125 5.839-10.125 1.446 1.411 3.411 2.286 5.589 2.286s4.143-0.875 5.589-2.286c4.679 0 5.839 5.429 5.839 10.125zM18.286 9.143c0 3.786-3.071 6.857-6.857 6.857s-6.857-3.071-6.857-6.857 3.071-6.857 6.857-6.857 6.857 3.071 6.857 6.857z"></path>
</symbol>
<symbol id="icon-check" viewBox="0 0 32 32">
<title>check</title>
<path d="M29.839 10.107c0 0.446-0.179 0.893-0.5 1.214l-15.357 15.357c-0.321 0.321-0.768 0.5-1.214 0.5s-0.893-0.179-1.214-0.5l-8.893-8.893c-0.321-0.321-0.5-0.768-0.5-1.214s0.179-0.893 0.5-1.214l2.429-2.429c0.321-0.321 0.768-0.5 1.214-0.5s0.893 0.179 1.214 0.5l5.25 5.268 11.714-11.732c0.321-0.321 0.768-0.5 1.214-0.5s0.893 0.179 1.214 0.5l2.429 2.429c0.321 0.321 0.5 0.768 0.5 1.214z"></path>
</symbol>
<symbol id="icon-close" viewBox="0 0 25 32">
<title>close</title>
<path d="M23.179 23.607c0 0.446-0.179 0.893-0.5 1.214l-2.429 2.429c-0.321 0.321-0.768 0.5-1.214 0.5s-0.893-0.179-1.214-0.5l-5.25-5.25-5.25 5.25c-0.321 0.321-0.768 0.5-1.214 0.5s-0.893-0.179-1.214-0.5l-2.429-2.429c-0.321-0.321-0.5-0.768-0.5-1.214s0.179-0.893 0.5-1.214l5.25-5.25-5.25-5.25c-0.321-0.321-0.5-0.768-0.5-1.214s0.179-0.893 0.5-1.214l2.429-2.429c0.321-0.321 0.768-0.5 1.214-0.5s0.893 0.179 1.214 0.5l5.25 5.25 5.25-5.25c0.321-0.321 0.768-0.5 1.214-0.5s0.893 0.179 1.214 0.5l2.429 2.429c0.321 0.321 0.5 0.768 0.5 1.214s-0.179 0.893-0.5 1.214l-5.25 5.25 5.25 5.25c0.321 0.321 0.5 0.768 0.5 1.214z"></path>
</symbol>
<symbol id="icon-power-off" viewBox="0 0 27 32">
<title>power-off</title>
<path d="M27.429 16c0 7.554-6.161 13.714-13.714 13.714s-13.714-6.161-13.714-13.714c0-4.339 2-8.339 5.482-10.946 1.018-0.768 2.446-0.571 3.196 0.446 0.768 1 0.554 2.446-0.446 3.196-2.321 1.75-3.661 4.411-3.661 7.304 0 5.036 4.107 9.143 9.143 9.143s9.143-4.107 9.143-9.143c0-2.893-1.339-5.554-3.661-7.304-1-0.75-1.214-2.196-0.446-3.196 0.75-1.018 2.196-1.214 3.196-0.446 3.482 2.607 5.482 6.607 5.482 10.946zM16 2.286v11.429c0 1.25-1.036 2.286-2.286 2.286s-2.286-1.036-2.286-2.286v-11.429c0-1.25 1.036-2.286 2.286-2.286s2.286 1.036 2.286 2.286z"></path>
</symbol>
<symbol id="icon-settings1" viewBox="0 0 27 32">
<title>settings1</title>
<path d="M18.286 16c0-2.518-2.054-4.571-4.571-4.571s-4.571 2.054-4.571 4.571 2.054 4.571 4.571 4.571 4.571-2.054 4.571-4.571zM27.429 14.054v3.964c0 0.268-0.214 0.589-0.5 0.643l-3.304 0.5c-0.196 0.571-0.411 1.107-0.696 1.625 0.607 0.875 1.25 1.661 1.911 2.464 0.107 0.125 0.179 0.286 0.179 0.446s-0.054 0.286-0.161 0.411c-0.429 0.571-2.839 3.196-3.446 3.196-0.161 0-0.321-0.071-0.464-0.161l-2.464-1.929c-0.518 0.268-1.071 0.5-1.625 0.679-0.125 1.089-0.232 2.25-0.518 3.321-0.071 0.286-0.321 0.5-0.643 0.5h-3.964c-0.321 0-0.607-0.232-0.643-0.536l-0.5-3.286c-0.554-0.179-1.089-0.393-1.607-0.661l-2.518 1.911c-0.125 0.107-0.286 0.161-0.446 0.161s-0.321-0.071-0.446-0.196c-0.946-0.857-2.196-1.964-2.946-3-0.089-0.125-0.125-0.268-0.125-0.411 0-0.161 0.054-0.286 0.143-0.411 0.607-0.821 1.268-1.607 1.875-2.446-0.304-0.571-0.554-1.161-0.732-1.768l-3.268-0.482c-0.304-0.054-0.518-0.339-0.518-0.643v-3.964c0-0.268 0.214-0.589 0.482-0.643l3.321-0.5c0.179-0.571 0.411-1.107 0.696-1.643-0.607-0.857-1.25-1.661-1.911-2.464-0.107-0.125-0.179-0.268-0.179-0.429s0.071-0.286 0.161-0.411c0.429-0.589 2.839-3.196 3.446-3.196 0.161 0 0.321 0.071 0.464 0.179l2.464 1.911c0.518-0.268 1.071-0.5 1.625-0.679 0.125-1.089 0.232-2.25 0.518-3.321 0.071-0.286 0.321-0.5 0.643-0.5h3.964c0.321 0 0.607 0.232 0.643 0.536l0.5 3.286c0.554 0.179 1.089 0.393 1.607 0.661l2.536-1.911c0.107-0.107 0.268-0.161 0.429-0.161s0.321 0.071 0.446 0.179c0.946 0.875 2.196 1.982 2.946 3.036 0.089 0.107 0.125 0.25 0.125 0.393 0 0.161-0.054 0.286-0.143 0.411-0.607 0.821-1.268 1.607-1.875 2.446 0.304 0.571 0.554 1.161 0.732 1.75l3.268 0.5c0.304 0.054 0.518 0.339 0.518 0.643z"></path>
</symbol>
<symbol id="icon-play-circle-o" viewBox="0 0 27 32">
<title>play-circle-o</title>
<path d="M21.143 16c0 0.411-0.214 0.786-0.571 0.982l-9.714 5.714c-0.179 0.107-0.375 0.161-0.571 0.161s-0.393-0.054-0.571-0.143c-0.357-0.214-0.571-0.589-0.571-1v-11.429c0-0.411 0.214-0.786 0.571-1 0.357-0.196 0.804-0.196 1.143 0.018l9.714 5.714c0.357 0.196 0.571 0.571 0.571 0.982zM23.429 16c0-5.357-4.357-9.714-9.714-9.714s-9.714 4.357-9.714 9.714 4.357 9.714 9.714 9.714 9.714-4.357 9.714-9.714zM27.429 16c0 7.571-6.143 13.714-13.714 13.714s-13.714-6.143-13.714-13.714 6.143-13.714 13.714-13.714 13.714 6.143 13.714 13.714z"></path>
</symbol>
<symbol id="icon-repeat" viewBox="0 0 27 32">
<title>repeat</title>
<path d="M27.429 4.571v8c0 0.625-0.518 1.143-1.143 1.143h-8c-0.464 0-0.875-0.286-1.054-0.714-0.179-0.411-0.089-0.911 0.25-1.232l2.464-2.464c-1.679-1.554-3.893-2.446-6.232-2.446-5.036 0-9.143 4.107-9.143 9.143s4.107 9.143 9.143 9.143c2.839 0 5.464-1.286 7.214-3.554 0.089-0.125 0.25-0.196 0.411-0.214 0.161 0 0.321 0.054 0.446 0.161l2.446 2.464c0.214 0.196 0.214 0.536 0.036 0.768-2.607 3.143-6.464 4.946-10.554 4.946-7.554 0-13.714-6.161-13.714-13.714s6.161-13.714 13.714-13.714c3.518 0 6.929 1.411 9.446 3.786l2.321-2.304c0.321-0.339 0.821-0.429 1.25-0.25 0.411 0.179 0.696 0.589 0.696 1.054z"></path>
</symbol>
<symbol id="icon-refresh" viewBox="0 0 27 32">
<title>refresh</title>
<path d="M26.982 18.857c0 0.036 0 0.089-0.018 0.125-1.518 6.321-6.732 10.732-13.321 10.732-3.482 0-6.857-1.375-9.393-3.786l-2.304 2.304c-0.214 0.214-0.5 0.339-0.804 0.339-0.625 0-1.143-0.518-1.143-1.143v-8c0-0.625 0.518-1.143 1.143-1.143h8c0.625 0 1.143 0.518 1.143 1.143 0 0.304-0.125 0.589-0.339 0.804l-2.446 2.446c1.679 1.571 3.911 2.464 6.214 2.464 3.179 0 6.125-1.643 7.786-4.357 0.429-0.696 0.643-1.375 0.946-2.089 0.089-0.25 0.268-0.411 0.536-0.411h3.429c0.321 0 0.571 0.268 0.571 0.571zM27.429 4.571v8c0 0.625-0.518 1.143-1.143 1.143h-8c-0.625 0-1.143-0.518-1.143-1.143 0-0.304 0.125-0.589 0.339-0.804l2.464-2.464c-1.696-1.571-3.929-2.446-6.232-2.446-3.179 0-6.125 1.643-7.786 4.357-0.429 0.696-0.643 1.375-0.946 2.089-0.089 0.25-0.268 0.411-0.536 0.411h-3.554c-0.321 0-0.571-0.268-0.571-0.571v-0.125c1.536-6.339 6.804-10.732 13.393-10.732 3.5 0 6.911 1.393 9.446 3.786l2.321-2.304c0.214-0.214 0.5-0.339 0.804-0.339 0.625 0 1.143 0.518 1.143 1.143z"></path>
</symbol>
<symbol id="icon-lock" viewBox="0 0 21 32">
<title>lock</title>
<path d="M5.714 13.714h9.143v-3.429c0-2.518-2.054-4.571-4.571-4.571s-4.571 2.054-4.571 4.571v3.429zM20.571 15.429v10.286c0 0.946-0.768 1.714-1.714 1.714h-17.143c-0.946 0-1.714-0.768-1.714-1.714v-10.286c0-0.946 0.768-1.714 1.714-1.714h0.571v-3.429c0-4.393 3.607-8 8-8s8 3.607 8 8v3.429h0.571c0.946 0 1.714 0.768 1.714 1.714z"></path>
</symbol>
<symbol id="icon-pencil" viewBox="0 0 27 32">
<title>pencil</title>
<path d="M6.482 27.429l1.625-1.625-4.196-4.196-1.625 1.625v1.911h2.286v2.286h1.911zM15.821 10.857c0-0.232-0.161-0.393-0.393-0.393-0.107 0-0.214 0.036-0.304 0.125l-9.679 9.679c-0.089 0.089-0.125 0.196-0.125 0.304 0 0.232 0.161 0.393 0.393 0.393 0.107 0 0.214-0.036 0.304-0.125l9.679-9.679c0.089-0.089 0.125-0.196 0.125-0.304zM14.857 7.429l7.429 7.429-14.857 14.857h-7.429v-7.429zM27.054 9.143c0 0.607-0.25 1.196-0.661 1.607l-2.964 2.964-7.429-7.429 2.964-2.946c0.411-0.429 1-0.679 1.607-0.679s1.196 0.25 1.625 0.679l4.196 4.179c0.411 0.429 0.661 1.018 0.661 1.625z"></path>
</symbol>
<symbol id="icon-chev-l" viewBox="0 0 24 32">
<title>chev-l</title>
<path d="M20.911 5.375l-9.482 9.482 9.482 9.482c0.446 0.446 0.446 1.161 0 1.607l-2.964 2.964c-0.446 0.446-1.161 0.446-1.607 0l-13.25-13.25c-0.446-0.446-0.446-1.161 0-1.607l13.25-13.25c0.446-0.446 1.161-0.446 1.607 0l2.964 2.964c0.446 0.446 0.446 1.161 0 1.607z"></path>
</symbol>
<symbol id="icon-chev-r" viewBox="0 0 22 32">
<title>chev-r</title>
<path d="M19.768 15.661l-13.25 13.25c-0.446 0.446-1.161 0.446-1.607 0l-2.964-2.964c-0.446-0.446-0.446-1.161 0-1.607l9.482-9.482-9.482-9.482c-0.446-0.446-0.446-1.161 0-1.607l2.964-2.964c0.446-0.446 1.161-0.446 1.607 0l13.25 13.25c0.446 0.446 0.446 1.161 0 1.607z"></path>
</symbol>
<symbol id="icon-plus-circle" viewBox="0 0 27 32">
<title>plus-circle</title>
<path d="M21.714 17.143v-2.286c0-0.625-0.518-1.143-1.143-1.143h-4.571v-4.571c0-0.625-0.518-1.143-1.143-1.143h-2.286c-0.625 0-1.143 0.518-1.143 1.143v4.571h-4.571c-0.625 0-1.143 0.518-1.143 1.143v2.286c0 0.625 0.518 1.143 1.143 1.143h4.571v4.571c0 0.625 0.518 1.143 1.143 1.143h2.286c0.625 0 1.143-0.518 1.143-1.143v-4.571h4.571c0.625 0 1.143-0.518 1.143-1.143zM27.429 16c0 7.571-6.143 13.714-13.714 13.714s-13.714-6.143-13.714-13.714 6.143-13.714 13.714-13.714 13.714 6.143 13.714 13.714z"></path>
</symbol>
<symbol id="icon-minus-circle" viewBox="0 0 27 32">
<title>minus-circle</title>
<path d="M21.714 17.143v-2.286c0-0.625-0.518-1.143-1.143-1.143h-13.714c-0.625 0-1.143 0.518-1.143 1.143v2.286c0 0.625 0.518 1.143 1.143 1.143h13.714c0.625 0 1.143-0.518 1.143-1.143zM27.429 16c0 7.571-6.143 13.714-13.714 13.714s-13.714-6.143-13.714-13.714 6.143-13.714 13.714-13.714 13.714 6.143 13.714 13.714z"></path>
</symbol>
<symbol id="icon-exclamation-circle" viewBox="0 0 27 32">
<title>exclamation-circle</title>
<path d="M13.714 2.286c7.571 0 13.714 6.143 13.714 13.714s-6.143 13.714-13.714 13.714-13.714-6.143-13.714-13.714 6.143-13.714 13.714-13.714zM16 24.554v-3.393c0-0.321-0.25-0.589-0.554-0.589h-3.429c-0.321 0-0.589 0.268-0.589 0.589v3.393c0 0.321 0.268 0.589 0.589 0.589h3.429c0.304 0 0.554-0.268 0.554-0.589zM15.964 18.411l0.321-11.089c0-0.125-0.054-0.25-0.179-0.321-0.107-0.089-0.268-0.143-0.429-0.143h-3.929c-0.161 0-0.321 0.054-0.429 0.143-0.125 0.071-0.179 0.196-0.179 0.321l0.304 11.089c0 0.25 0.268 0.446 0.607 0.446h3.304c0.321 0 0.589-0.196 0.607-0.446z"></path>
</symbol>
<symbol id="icon-exclamation-triangle" viewBox="0 0 32 32">
<title>exclamation-triangle</title>
<path d="M18.286 24.554v-3.393c0-0.321-0.25-0.589-0.571-0.589h-3.429c-0.321 0-0.571 0.268-0.571 0.589v3.393c0 0.321 0.25 0.589 0.571 0.589h3.429c0.321 0 0.571-0.268 0.571-0.589zM18.25 17.875l0.321-8.196c0-0.107-0.054-0.25-0.179-0.339-0.107-0.089-0.268-0.196-0.429-0.196h-3.929c-0.161 0-0.321 0.107-0.429 0.196-0.125 0.089-0.179 0.268-0.179 0.375l0.304 8.161c0 0.232 0.268 0.411 0.607 0.411h3.304c0.321 0 0.589-0.179 0.607-0.411zM18 1.196l13.714 25.143c0.393 0.696 0.375 1.554-0.036 2.25s-1.161 1.125-1.964 1.125h-27.429c-0.804 0-1.554-0.429-1.964-1.125s-0.429-1.554-0.036-2.25l13.714-25.143c0.393-0.732 1.161-1.196 2-1.196s1.607 0.464 2 1.196z"></path>
</symbol>
<symbol id="icon-comment" viewBox="0 0 32 32">
<title>comment</title>
<path d="M32 16c0 6.321-7.161 11.429-16 11.429-0.875 0-1.75-0.054-2.589-0.143-2.339 2.071-5.125 3.536-8.214 4.321-0.643 0.179-1.339 0.304-2.036 0.393-0.393 0.036-0.768-0.25-0.857-0.679v-0.018c-0.089-0.446 0.214-0.714 0.482-1.036 1.125-1.268 2.411-2.339 3.25-5.321-3.679-2.089-6.036-5.321-6.036-8.946 0-6.304 7.161-11.429 16-11.429s16 5.107 16 11.429z"></path>
</symbol>
<symbol id="icon-shopping-cart" viewBox="0 0 30 32">
<title>shopping-cart</title>
<path d="M11.429 27.429c0 1.25-1.036 2.286-2.286 2.286s-2.286-1.036-2.286-2.286 1.036-2.286 2.286-2.286 2.286 1.036 2.286 2.286zM27.429 27.429c0 1.25-1.036 2.286-2.286 2.286s-2.286-1.036-2.286-2.286 1.036-2.286 2.286-2.286 2.286 1.036 2.286 2.286zM29.714 8v9.143c0 0.571-0.446 1.071-1.018 1.143l-18.643 2.179c0.089 0.411 0.232 0.821 0.232 1.25 0 0.411-0.25 0.786-0.429 1.143h16.429c0.625 0 1.143 0.518 1.143 1.143s-0.518 1.143-1.143 1.143h-18.286c-0.625 0-1.143-0.518-1.143-1.143 0-0.554 0.804-1.893 1.089-2.446l-3.161-14.696h-3.643c-0.625 0-1.143-0.518-1.143-1.143s0.518-1.143 1.143-1.143h4.571c1.196 0 1.232 1.429 1.411 2.286h21.446c0.625 0 1.143 0.518 1.143 1.143z"></path>
</symbol>
<symbol id="icon-comments" viewBox="0 0 32 32">
<title>comments</title>
<path d="M25.143 13.714c0 5.054-5.625 9.143-12.571 9.143-1.089 0-2.143-0.107-3.143-0.286-1.482 1.054-3.161 1.821-4.964 2.286-0.482 0.125-1 0.214-1.536 0.286h-0.054c-0.268 0-0.518-0.214-0.571-0.518v0c-0.071-0.339 0.161-0.554 0.357-0.786 0.696-0.786 1.482-1.482 2.089-2.964-2.893-1.679-4.75-4.268-4.75-7.161 0-5.054 5.625-9.143 12.571-9.143s12.571 4.089 12.571 9.143zM32 18.286c0 2.911-1.857 5.482-4.75 7.161 0.607 1.482 1.393 2.179 2.089 2.964 0.196 0.232 0.429 0.446 0.357 0.786v0c-0.071 0.321-0.339 0.554-0.625 0.518-0.536-0.071-1.054-0.161-1.536-0.286-1.804-0.464-3.482-1.232-4.964-2.286-1 0.179-2.054 0.286-3.143 0.286-3.232 0-6.196-0.893-8.429-2.357 0.518 0.036 1.054 0.071 1.571 0.071 3.839 0 7.464-1.107 10.232-3.107 2.982-2.179 4.625-5.125 4.625-8.321 0-0.929-0.143-1.839-0.411-2.714 3.018 1.661 4.982 4.304 4.982 7.286z"></path>
</symbol>
<symbol id="icon-credit-card" viewBox="0 0 34 32">
<title>credit-card</title>
<path d="M31.429 2.286c1.571 0 2.857 1.286 2.857 2.857v21.714c0 1.571-1.286 2.857-2.857 2.857h-28.571c-1.571 0-2.857-1.286-2.857-2.857v-21.714c0-1.571 1.286-2.857 2.857-2.857h28.571zM2.857 4.571c-0.304 0-0.571 0.268-0.571 0.571v4h29.714v-4c0-0.304-0.268-0.571-0.571-0.571h-28.571zM31.429 27.429c0.304 0 0.571-0.268 0.571-0.571v-10.857h-29.714v10.857c0 0.304 0.268 0.571 0.571 0.571h28.571zM4.571 25.143v-2.286h4.571v2.286h-4.571zM11.429 25.143v-2.286h6.857v2.286h-6.857z"></path>
</symbol>
<symbol id="icon-file-text-o" viewBox="0 0 27 32">
<title>file-text-o</title>
<path d="M26.214 6.786c0.661 0.661 1.214 1.982 1.214 2.929v20.571c0 0.946-0.768 1.714-1.714 1.714h-24c-0.946 0-1.714-0.768-1.714-1.714v-28.571c0-0.946 0.768-1.714 1.714-1.714h16c0.946 0 2.268 0.554 2.929 1.214zM18.286 2.429v6.714h6.714c-0.107-0.304-0.268-0.607-0.393-0.732l-5.589-5.589c-0.125-0.125-0.429-0.286-0.732-0.393zM25.143 29.714v-18.286h-7.429c-0.946 0-1.714-0.768-1.714-1.714v-7.429h-13.714v27.429h22.857zM6.857 14.286c0-0.321 0.25-0.571 0.571-0.571h12.571c0.321 0 0.571 0.25 0.571 0.571v1.143c0 0.321-0.25 0.571-0.571 0.571h-12.571c-0.321 0-0.571-0.25-0.571-0.571v-1.143zM20 18.286c0.321 0 0.571 0.25 0.571 0.571v1.143c0 0.321-0.25 0.571-0.571 0.571h-12.571c-0.321 0-0.571-0.25-0.571-0.571v-1.143c0-0.321 0.25-0.571 0.571-0.571h12.571zM20 22.857c0.321 0 0.571 0.25 0.571 0.571v1.143c0 0.321-0.25 0.571-0.571 0.571h-12.571c-0.321 0-0.571-0.25-0.571-0.571v-1.143c0-0.321 0.25-0.571 0.571-0.571h12.571z"></path>
</symbol>
<symbol id="icon-exclamation" viewBox="0 0 11 32">
<title>exclamation</title>
<path d="M9.143 22.286v4c0 0.625-0.518 1.143-1.143 1.143h-4.571c-0.625 0-1.143-0.518-1.143-1.143v-4c0-0.625 0.518-1.143 1.143-1.143h4.571c0.625 0 1.143 0.518 1.143 1.143zM9.679 3.429l-0.5 13.714c-0.018 0.625-0.554 1.143-1.179 1.143h-4.571c-0.625 0-1.161-0.518-1.179-1.143l-0.5-13.714c-0.018-0.625 0.482-1.143 1.107-1.143h5.714c0.625 0 1.125 0.518 1.107 1.143z"></path>
</symbol>
<symbol id="icon-currency" viewBox="0 0 32 32">
<title>currency-dollar</title>
<path d="M16 32c-8.837 0-16-7.163-16-16s7.163-16 16-16v0c8.837 0 16 7.163 16 16s-7.163 16-16 16v0zM17.6 24h1.6c2.651 0 4.8-2.149 4.8-4.8s-2.149-4.8-4.8-4.8v0h-6.416c-0.884 0-1.6-0.716-1.6-1.6s0.716-1.6 1.6-1.6v0h9.616v-3.2h-4.8v-3.2h-3.2v3.2h-1.6c-2.651 0-4.8 2.149-4.8 4.8s2.149 4.8 4.8 4.8v0h6.4c0.884 0 1.6 0.716 1.6 1.6s-0.716 1.6-1.6 1.6v0h-9.6v3.2h4.8v3.2h3.2v-3.2z"></path>
</symbol>
<symbol id="icon-bitcoin" viewBox="0 0 24 32">
<title>bitcoin</title>
<path d="M20.839 11.429c0.232 2.375-0.768 3.804-2.339 4.607 2.607 0.625 4.25 2.179 3.929 5.661-0.411 4.339-3.625 5.5-8.232 5.75v4.554h-2.75v-4.482c-0.696 0-1.429 0-2.179-0.018v4.5h-2.75v-4.554c-0.643 0-1.286-0.018-1.946-0.018h-3.571l0.554-3.268c2.018 0.036 1.982 0 1.982 0 0.768 0 0.982-0.554 1.036-0.911v-7.179h0.286c-0.107-0.018-0.214-0.018-0.286-0.018v-5.125c-0.107-0.571-0.464-1.214-1.589-1.214 0 0 0.036-0.036-1.982 0v-2.929l3.786 0.018c0.554 0 1.143 0 1.732-0.018v-4.5h2.75v4.411c0.732-0.018 1.464-0.036 2.179-0.036v-4.375h2.75v4.5c3.536 0.304 6.339 1.393 6.643 4.643zM17 21.161c0-3.536-5.821-3.018-7.679-3.018v6.036c1.857 0 7.679 0.393 7.679-3.018zM15.732 12.661c0-3.232-4.857-2.75-6.411-2.75v5.482c1.554 0 6.411 0.357 6.411-2.732z"></path>
</symbol>
<symbol id="icon-paper-plane" viewBox="0 0 32 32">
<title>paper-plane</title>
<path d="M31.5 0.196c0.375 0.268 0.554 0.696 0.482 1.143l-4.571 27.429c-0.054 0.339-0.268 0.625-0.571 0.804-0.161 0.089-0.357 0.143-0.554 0.143-0.143 0-0.286-0.036-0.429-0.089l-8.089-3.304-4.321 5.268c-0.214 0.268-0.536 0.411-0.875 0.411-0.125 0-0.268-0.018-0.393-0.071-0.446-0.161-0.75-0.589-0.75-1.071v-6.232l15.429-18.911-19.089 16.518-7.054-2.893c-0.411-0.161-0.679-0.536-0.714-0.982-0.018-0.429 0.196-0.839 0.571-1.054l29.714-17.143c0.179-0.107 0.375-0.161 0.571-0.161 0.232 0 0.464 0.071 0.643 0.196z"></path>
</symbol>
<symbol id="icon-sliders" viewBox="0 0 27 32">
<title>sliders</title>
<path d="M6.286 25.143v2.286h-6.286v-2.286h6.286zM12.571 22.857c0.625 0 1.143 0.518 1.143 1.143v4.571c0 0.625-0.518 1.143-1.143 1.143h-4.571c-0.625 0-1.143-0.518-1.143-1.143v-4.571c0-0.625 0.518-1.143 1.143-1.143h4.571zM15.429 16v2.286h-15.429v-2.286h15.429zM4 6.857v2.286h-4v-2.286h4zM27.429 25.143v2.286h-13.143v-2.286h13.143zM10.286 4.571c0.625 0 1.143 0.518 1.143 1.143v4.571c0 0.625-0.518 1.143-1.143 1.143h-4.571c-0.625 0-1.143-0.518-1.143-1.143v-4.571c0-0.625 0.518-1.143 1.143-1.143h4.571zM21.714 13.714c0.625 0 1.143 0.518 1.143 1.143v4.571c0 0.625-0.518 1.143-1.143 1.143h-4.571c-0.625 0-1.143-0.518-1.143-1.143v-4.571c0-0.625 0.518-1.143 1.143-1.143h4.571zM27.429 16v2.286h-4v-2.286h4zM27.429 6.857v2.286h-15.429v-2.286h15.429z"></path>
</symbol>
<symbol id="icon-exit" viewBox="0 0 32 32">
<title>exit</title>
<path d="M24 20v-4h-10v-4h10v-4l6 6zM22 18v8h-10v6l-12-6v-26h22v10h-2v-8h-16l8 4v18h8v-6z"></path>
</symbol>
<symbol id="icon-basket" viewBox="0 0 37 32">
<title>shopping-basket</title>
<path d="M34.286 13.714c1.268 0 2.286 1.018 2.286 2.286s-1.018 2.286-2.286 2.286h-0.268l-2.054 11.821c-0.196 1.089-1.143 1.893-2.25 1.893h-22.857c-1.107 0-2.054-0.804-2.25-1.893l-2.054-11.821h-0.268c-1.268 0-2.286-1.018-2.286-2.286s1.018-2.286 2.286-2.286h32zM8.661 28c0.625-0.054 1.107-0.607 1.054-1.232l-0.571-7.429c-0.054-0.625-0.607-1.107-1.232-1.054s-1.107 0.607-1.054 1.232l0.571 7.429c0.054 0.589 0.554 1.054 1.143 1.054h0.089zM16 26.857v-7.429c0-0.625-0.518-1.143-1.143-1.143s-1.143 0.518-1.143 1.143v7.429c0 0.625 0.518 1.143 1.143 1.143s1.143-0.518 1.143-1.143zM22.857 26.857v-7.429c0-0.625-0.518-1.143-1.143-1.143s-1.143 0.518-1.143 1.143v7.429c0 0.625 0.518 1.143 1.143 1.143s1.143-0.518 1.143-1.143zM29.143 26.946l0.571-7.429c0.054-0.625-0.429-1.179-1.054-1.232s-1.179 0.429-1.232 1.054l-0.571 7.429c-0.054 0.625 0.429 1.179 1.054 1.232h0.089c0.589 0 1.089-0.464 1.143-1.054zM8.5 5.214l-1.661 7.357h-2.357l1.804-7.875c0.464-2.089 2.304-3.554 4.446-3.554h2.982c0-0.625 0.518-1.143 1.143-1.143h6.857c0.625 0 1.143 0.518 1.143 1.143h2.982c2.143 0 3.982 1.464 4.446 3.554l1.804 7.875h-2.357l-1.661-7.357c-0.25-1.054-1.161-1.786-2.232-1.786h-2.982c0 0.625-0.518 1.143-1.143 1.143h-6.857c-0.625 0-1.143-0.518-1.143-1.143h-2.982c-1.071 0-1.982 0.732-2.232 1.786z"></path>
</symbol>
<symbol id="icon-shop" viewBox="0 0 32 32">
<title>shop</title>
<path d="M31.4 11.2l-3-3.998c-0.117-0.157-0.256-0.293-0.4-0.423v-4.779c0-1.104-0.896-2-2-2h-20c-1.105 0-2 0.896-2 2v4.78c-0.144 0.129-0.283 0.264-0.4 0.42l-2.999 3.999c-0.388 0.516-0.601 1.155-0.601 1.801v1c0 1.654 1.346 3 3 3v0 13c0 1.104 0.896 2 2 2h22c1.104 0 2-0.896 2-2v-13c1.654 0 3-1.346 3-3v-1c0-0.646-0.213-1.285-0.6-1.8zM26 2v4h-20v-4h20zM10.193 15h-4.189l4-7h2.189l-2 7zM13.234 8h2.266v7h-4.266l2-7zM16.5 8h2.266l2 7h-4.266v-7zM19.805 8h2.189l4 7h-4.189l-2-7zM2 14v-1c0-0.217 0.070-0.427 0.2-0.6l3-4c0.189-0.252 0.485-0.4 0.8-0.4h2.852l-4 7h-1.852c-0.552 0-1-0.447-1-1zM20 30h-7.5v-10h7.5v10zM27 30h-6v-10c0-0.553-0.449-1-1-1h-7.5c-0.552 0-1 0.447-1 1v10h-6.5v-13h22v13zM30 14c0 0.553-0.447 1-1 1h-1.854l-4-7h2.854c0.314 0 0.611 0.148 0.799 0.4l3 4c0.131 0.173 0.201 0.383 0.201 0.6v1z"></path>
</symbol>
<symbol id="icon-home" viewBox="0 0 32 32">
<title>home</title>
<path d="M12.8 32h-8v-16h-4.8l16-16 16 16h-4.8v16h-8v-9.6h-6.4v9.6z"></path>
</symbol>


</defs>
</svg>
